<svg width="163" height="109" viewBox="0 0 163 109" fill="none" xmlns="http://www.w3.org/2000/svg">
<path d="M54.1478 0H108.853C123.747 0 137.285 6.08159 147.097 15.8795C156.909 25.6772 163 39.1953 163 54.0685C163 68.9413 156.909 82.4594 147.097 92.2568C137.285 102.055 123.747 108.136 108.853 108.136H54.1478C39.2528 108.136 25.7149 102.055 15.9034 92.2568C6.0911 82.4594 0 68.9413 0 54.0685C0 39.1953 6.0911 25.6772 15.9034 15.8795C25.7149 6.08159 39.2528 0 54.1478 0Z" fill="url(#paint0_radial)"/>
<path d="M54.1478 0H108.853C123.747 0 137.285 6.08159 147.097 15.8795C156.909 25.6772 163 39.1953 163 54.0685C163 68.9413 156.909 82.4594 147.097 92.2568C137.285 102.055 123.747 108.136 108.853 108.136H54.1478C39.2528 108.136 25.7149 102.055 15.9028 92.2568C6.0911 82.4594 0 68.9413 0 54.0685C0 39.1953 6.0911 25.6772 15.9028 15.8795C25.7149 6.08159 39.2528 0 54.1478 0ZM108.853 7.59963H54.1478C41.354 7.59963 29.7199 12.829 21.2837 21.2525C12.8478 29.6764 7.61078 41.2934 7.61078 54.0685C7.61078 66.8429 12.8478 78.4603 21.2837 86.8838C29.7199 95.3073 41.354 100.537 54.1478 100.537H108.853C121.646 100.537 133.281 95.3073 141.716 86.8838C150.152 78.4603 155.39 66.8429 155.39 54.0685C155.39 41.2934 150.152 29.6764 141.716 21.2525C133.281 12.829 121.646 7.59963 108.853 7.59963Z" fill="black"/>
<path d="M57.5425 70.5485L48.6188 69.2669C45.3716 68.8004 42.5629 70.7717 40.3138 68.6551C38.0644 66.5387 36.9398 66.4452 36.9398 63.2488C36.9398 60.0529 38.0673 61.2586 40.3138 59.1889C42.5599 57.1185 45.3352 55.9178 48.6188 56.0788L87.7429 58.0011C90.6804 58.1447 97.9294 51.1549 97.9294 48.9958C97.9294 46.7494 90.6685 40.3293 87.7429 40.5015L55.0847 42.4235C52.5019 42.5757 59.5324 44.3741 59.5324 41.8691C59.5324 39.191 52.4029 37.8523 54.8254 37.8523H58.6195C61.2762 29.4727 67.8554 21.9592 73.9444 15.8797C83.7568 6.0817 89.596 4.48463 104.49 4.48463H108.853C123.747 4.48463 134.078 8.64479 143.889 18.4422C153.702 28.2395 161.076 39.1955 161.076 54.0686C161.076 68.9414 154.985 80.5378 145.173 90.3349C135.361 100.133 123.747 105.574 108.853 105.574H104.49C89.596 105.574 78.624 102.055 68.8122 92.2569C63.7361 87.1891 60.2981 77.2803 57.5425 70.5485Z" fill="url(#paint1_radial)"/>
<path d="M104.49 0.000114441H108.853C123.747 0.000114441 137.285 6.0817 147.097 15.8797C156.909 25.6773 163 39.1955 163 54.0686C163 68.9414 156.909 82.4596 147.097 92.2569C137.285 102.055 123.747 108.136 108.853 108.136H104.49C89.5959 108.136 76.0579 102.055 66.2453 92.2569C61.1695 87.1891 57.0904 81.124 54.3348 74.3922H42.8442C39.5568 74.3922 36.7889 73.3339 34.5395 71.2176C32.2898 69.1015 31.1655 66.4453 31.1655 63.2488C31.1655 60.0529 32.2898 57.4181 34.5395 55.3451C36.7889 53.2715 39.5568 52.235 42.8442 52.235H87.7428C90.6841 52.235 92.1548 51.1549 92.1548 48.9958C92.1548 46.7494 90.6812 45.6268 87.7428 45.6268H49.3101C46.7181 45.6268 45.417 44.3741 45.417 41.8691C45.417 39.191 46.6286 37.8523 49.0508 37.8523H52.845C55.5022 29.4727 60.1566 21.9592 66.2453 15.8797C76.0579 6.0817 89.5959 0.000114441 104.49 0.000114441ZM62.6741 74.3922C64.9572 79.0398 67.9947 83.2578 71.6262 86.8839C80.0624 95.3074 91.6965 100.537 104.49 100.537H108.853C121.646 100.537 133.28 95.3074 141.717 86.8839C150.153 78.4604 155.389 66.8436 155.389 54.0686C155.389 41.2935 150.153 29.6765 141.717 21.2526C133.28 12.8291 121.646 7.59974 108.853 7.59974H104.49C91.6965 7.59974 80.0624 12.8291 71.6262 21.2526C66.9511 25.9206 63.2594 31.5696 60.8963 37.8523H88.9108C92.1982 37.8523 94.988 38.9103 97.2808 41.027C99.5733 43.1427 100.719 45.7993 100.719 48.9958C100.719 52.192 99.5733 54.8261 97.2808 56.8994C94.988 58.973 92.1982 60.0095 88.9108 60.0095H44.0122C41.0709 60.0095 39.6002 61.1321 39.6002 63.3785C39.6002 65.5379 41.0709 66.6178 44.0122 66.6178H95.9182C98.6 66.6178 99.9407 67.9137 99.9407 70.5049C99.9407 73.0968 98.6862 74.3922 96.1775 74.3922H62.6741Z" fill="black"/>
<defs>
<radialGradient id="paint0_radial" cx="0" cy="0" r="1" gradientUnits="userSpaceOnUse" gradientTransform="translate(53.2732 48.9) rotate(178.409) scale(42.9531 40.7226)">
<stop stop-color="#4CD964"/>
<stop offset="1" stop-color="#23BC3C"/>
</radialGradient>
<radialGradient id="paint1_radial" cx="0" cy="0" r="1" gradientUnits="userSpaceOnUse" gradientTransform="translate(107.697 54.0184) rotate(1.00546) scale(48.1542 46.3769)">
<stop stop-color="white"/>
<stop offset="0.796866" stop-color="#E5E5E5"/>
</radialGradient>
</defs>
</svg>
