<svg width="15" height="25" viewBox="0 0 15 25" fill="none" xmlns="http://www.w3.org/2000/svg">
<path d="M12.7592 0H2.24068C1.23401 0 0.421387 0.816267 0.421387 1.82111V23.1807C0.421387 24.1846 1.23401 25 2.24068 25H12.7592C13.7641 25 14.5785 24.1846 14.5785 23.1807V1.82111C14.5785 0.816267 13.7641 0 12.7592 0ZM4.90448 1.10597H10.0972C10.2284 1.10597 10.335 1.30184 10.335 1.54417C10.335 1.7865 10.2284 1.98327 10.0972 1.98327H4.90448C4.77238 1.98327 4.66762 1.7865 4.66762 1.54417C4.66762 1.30184 4.77238 1.10597 4.90448 1.10597ZM7.50086 23.2026C6.86042 23.2026 6.33932 22.6815 6.33932 22.0401C6.33932 21.3988 6.86042 20.8795 7.50086 20.8795C8.13948 20.8795 8.66058 21.3988 8.66058 22.0401C8.66058 22.6815 8.13948 23.2026 7.50086 23.2026ZM13.2156 19.2224H1.78517V3.07284H13.2156V19.2224Z" fill="#919191"/>
</svg>